<svg width="22" height="22" viewBox="0 0 22 22" fill="none" xmlns="http://www.w3.org/2000/svg">
<g clip-path="url(#clip0_43_1218)">
<path fill-rule="evenodd" clip-rule="evenodd" d="M0 11C0 4.92487 4.92487 0 11 0C17.0751 0 22 4.92487 22 11C22 17.0751 17.0751 22 11 22C4.92487 22 0 17.0751 0 11Z" fill="#229E45"/>
<path fill-rule="evenodd" clip-rule="evenodd" d="M11.2318 17.4195L21.1061 11.0086L11.1717 4.58047L1.25879 11.0258L11.2318 17.4195Z" fill="#F8E509"/>
<path fill-rule="evenodd" clip-rule="evenodd" d="M15.5332 11C15.5506 11.5595 15.4553 12.1167 15.2531 12.6386C15.0508 13.1606 14.7458 13.6365 14.3559 14.0382C13.9661 14.4399 13.4995 14.7591 12.9839 14.9769C12.4683 15.1948 11.9141 15.3067 11.3544 15.3061C10.7946 15.3055 10.2407 15.1925 9.72556 14.9736C9.21038 14.7547 8.74446 14.4345 8.35547 14.032C7.96648 13.6295 7.66236 13.153 7.46119 12.6306C7.26002 12.1083 7.1659 11.5508 7.18442 10.9914C7.22029 9.90747 7.67639 8.88001 8.45622 8.12634C9.23606 7.37267 10.2785 6.95189 11.363 6.95301C12.4475 6.95412 13.4891 7.37705 14.2673 8.13232C15.0456 8.8876 15.4996 9.916 15.5332 11Z" fill="#2B49A3"/>
<path fill-rule="evenodd" clip-rule="evenodd" d="M9.98174 13.5008L9.85283 13.4234L9.71963 13.4922L9.74971 13.3418L9.64658 13.2344L9.79268 13.2172L9.86143 13.0797L9.92588 13.2215L10.072 13.2473L9.96025 13.3504M12.7833 14.2098L12.6544 14.1324L12.5169 14.2012L12.547 14.0508L12.4438 13.9434L12.5942 13.9262L12.663 13.7887L12.7231 13.9305L12.8692 13.9563L12.7618 14.0594M11.5759 13.0754L11.4642 13.0109L11.3481 13.0668L11.3739 12.9379L11.288 12.8434L11.4126 12.8305L11.4728 12.7145L11.5243 12.8348L11.6532 12.8563L11.5587 12.9422M14.4032 12.6672L14.2915 12.6027L14.1798 12.6586L14.2056 12.534L14.1196 12.4438L14.2442 12.4266L14.3001 12.3148L14.356 12.4309L14.4806 12.4523L14.386 12.5383M11.5243 11.8207L11.3954 11.7434L11.2622 11.8121L11.2923 11.6617L11.1892 11.5543L11.3353 11.5371L11.404 11.4039L11.4685 11.5414L11.6146 11.5672L11.5028 11.6703M8.07822 10.5273L7.94932 10.45L7.82041 10.5188L7.84619 10.3684L7.74307 10.2609L7.89346 10.2438L7.96221 10.1063L8.02236 10.2481L8.16846 10.2738L8.06104 10.377M8.49502 12.2461L8.36611 12.1731L8.23291 12.2375L8.26299 12.0914L8.15986 11.9797L8.30596 11.9625L8.37471 11.8336L8.43916 11.9668L8.58525 11.9969L8.47353 12.0957M12.7962 9.89141L12.6845 9.82696L12.5642 9.88282L12.5899 9.75391L12.504 9.65508L12.6329 9.64219L12.6931 9.52188L12.7489 9.64649L12.8778 9.66797L12.779 9.75821M12.5642 11.0129L12.461 10.957L12.3708 11L12.388 10.8969L12.3192 10.8238L12.4224 10.8109L12.4696 10.7164L12.5126 10.8152L12.6157 10.8324L12.5384 10.9012M7.88057 12.5555L7.79463 12.5039L7.70439 12.5469L7.72158 12.4481L7.65283 12.375L7.75596 12.3664L7.79893 12.2805L7.84189 12.3664L7.94072 12.3879L7.86768 12.4566M14.4247 12.9508L14.3517 12.9164L14.2786 12.9465L14.2958 12.8734L14.2399 12.8176L14.3216 12.809L14.3603 12.7445L14.3903 12.8133L14.472 12.8262L14.4118 12.8777" fill="#FFFFEF"/>
<path fill-rule="evenodd" clip-rule="evenodd" d="M7.88496 12.5598L7.79902 12.5082L7.70879 12.5512L7.73027 12.4523L7.65723 12.3793L7.75605 12.3707L7.80332 12.2848L7.84629 12.3707L7.94512 12.3922L7.87207 12.4609" fill="#FFFFEF"/>
<path fill-rule="evenodd" clip-rule="evenodd" d="M7.88496 12.5598L7.79902 12.5082L7.70879 12.5512L7.73027 12.4523L7.65723 12.3793L7.75605 12.3707L7.80332 12.2848L7.84629 12.3707L7.94512 12.3922L7.87207 12.4609M9.25566 12.5598L9.16973 12.5082L9.08379 12.5512L9.10098 12.4523L9.03223 12.3793L9.13105 12.3707L9.17402 12.2805L9.21699 12.3707L9.31582 12.3922L9.24277 12.4609M9.08379 13.0195L8.99785 12.968L8.91191 13.0109L8.9291 12.9121L8.86035 12.8391L8.95918 12.8262L9.00215 12.7402L9.04512 12.8262L9.14395 12.8477L9.0709 12.9164M11.9369 12.1859L11.851 12.1344L11.7607 12.1773L11.7779 12.0785L11.7092 12.0055L11.808 11.9969L11.8553 11.9066L11.8982 11.9969L11.9928 12.0141L11.9197 12.0828M11.099 12.1859L11.0131 12.1344L10.9229 12.1773L10.9443 12.0785L10.8756 12.0055L10.9744 11.9969L11.0174 11.9066L11.0604 11.9969L11.1592 12.0141L11.0861 12.0828M8.83027 11.8937L8.77871 11.8637L8.72285 11.8894L8.73145 11.825L8.68848 11.782L8.75293 11.7734L8.78301 11.7176L8.80449 11.7777L8.86895 11.7863L8.82598 11.8293M14.3174 13.3203L14.2314 13.273L14.1412 13.316L14.1627 13.2172L14.0939 13.1441L14.1928 13.1312L14.2357 13.0453L14.2787 13.1312L14.3775 13.1527L14.3045 13.2215M13.617 13.4105L13.5482 13.3676L13.4752 13.4105L13.4924 13.3246L13.4322 13.2644L13.5182 13.2559L13.5525 13.1828L13.5869 13.2559L13.6729 13.273L13.6084 13.3289M13.9521 13.4062L13.8834 13.3633L13.8146 13.4019L13.8275 13.3246L13.776 13.2687L13.8533 13.2602L13.8877 13.1914L13.9178 13.2602L13.9951 13.273L13.9393 13.3289M14.8932 12.5812L14.8287 12.5426L14.76 12.5769L14.7771 12.5039L14.7256 12.448L14.7986 12.4394L14.833 12.375L14.8631 12.4437L14.9361 12.4566L14.8803 12.5082M13.6213 13.8746L13.5354 13.8273L13.4494 13.8703L13.4709 13.7758L13.4021 13.7113L13.4967 13.6984L13.5439 13.6168L13.5869 13.7027L13.6771 13.7199L13.6084 13.7801M13.6256 14.2484L13.5482 14.2055L13.4709 14.2441L13.4881 14.1496L13.4279 14.0851L13.5139 14.0723L13.5568 13.9906L13.5912 14.0766L13.6771 14.0937L13.6127 14.1539M12.9896 13.4062L12.9252 13.3676L12.8564 13.4019L12.8736 13.3246L12.8221 13.273L12.8951 13.2644L12.9295 13.1957L12.9596 13.2644L13.0326 13.2773L12.9768 13.3289M12.3967 13.4062L12.3322 13.3676L12.2635 13.4019L12.2807 13.3246L12.2291 13.273L12.3021 13.2644L12.3365 13.1957L12.3666 13.2644L12.4396 13.2773L12.3881 13.3289M11.3869 12.5211L11.3225 12.4824L11.2537 12.5168L11.2709 12.4437L11.2193 12.3879L11.2924 12.3793L11.3268 12.3148L11.3568 12.3836L11.4299 12.3965L11.374 12.4437M11.4986 14.3129L11.4428 14.2828L11.3869 14.3129L11.3998 14.2484L11.3568 14.2055L11.417 14.1926L11.4471 14.1367L11.4729 14.1969L11.5373 14.2055L11.49 14.2484M9.97754 11.4125L9.84863 11.3394L9.71543 11.4039L9.74551 11.2578L9.64238 11.1461L9.78848 11.1289L9.85723 10.9957L9.92168 11.1332L10.0678 11.159L9.95605 11.2621" fill="#FFFFEF"/>
<path fill-rule="evenodd" clip-rule="evenodd" d="M15.2583 12.5039C15.3391 12.2932 15.4024 12.0762 15.4474 11.8551C13.2302 9.9043 10.7552 8.90313 7.62705 9.10938C7.51499 9.32836 7.42294 9.55703 7.35205 9.79258C8.78711 9.64765 10.2365 9.81451 11.6011 10.2817C12.9657 10.749 14.2132 11.5055 15.2583 12.4996V12.5039Z" fill="white"/>
<path d="M14.2613 11.4039L14.3387 11.4469C14.3279 11.4711 14.3249 11.4982 14.3301 11.5242C14.3358 11.5443 14.3501 11.5615 14.373 11.5758C14.396 11.5901 14.4189 11.5987 14.4418 11.6016C14.459 11.6016 14.4733 11.593 14.4848 11.5758C14.4905 11.5672 14.4919 11.5572 14.4891 11.5457L14.4762 11.5113L14.4246 11.4555C14.3973 11.4275 14.3768 11.3937 14.3645 11.3566C14.3586 11.3287 14.3622 11.2997 14.3746 11.274C14.3871 11.2483 14.4077 11.2275 14.4332 11.2148C14.4562 11.2049 14.4816 11.202 14.5063 11.2062C14.5374 11.2126 14.5668 11.2258 14.5922 11.2449C14.6294 11.2711 14.6591 11.3067 14.6781 11.348C14.6833 11.3671 14.6841 11.387 14.6804 11.4064C14.6766 11.4258 14.6685 11.444 14.6566 11.4598L14.5793 11.4125C14.5879 11.3896 14.5908 11.3695 14.5879 11.3523C14.5822 11.338 14.5678 11.3237 14.5449 11.3094C14.522 11.295 14.502 11.2879 14.4848 11.2879L14.459 11.3008L14.4547 11.3309C14.4547 11.348 14.4719 11.3724 14.5063 11.4039L14.5707 11.4898C14.5824 11.5112 14.5878 11.5355 14.5863 11.5598C14.5848 11.5842 14.5764 11.6076 14.5621 11.6273C14.5473 11.6488 14.5263 11.6653 14.502 11.6746C14.4764 11.6863 14.4477 11.6893 14.4203 11.6832C14.3877 11.6749 14.3571 11.6603 14.3301 11.6402C14.2904 11.6148 14.2602 11.5771 14.2441 11.5328C14.2298 11.4956 14.2355 11.4526 14.2613 11.4039ZM13.8832 11.159L13.9691 11.2019C13.9601 11.2237 13.9571 11.2474 13.9605 11.2707C13.9663 11.2936 13.9806 11.3122 14.0035 11.3266C14.0264 11.3409 14.0493 11.3466 14.0723 11.3437C14.0895 11.3437 14.1038 11.3352 14.1152 11.318L14.1195 11.2922C14.1195 11.2807 14.1138 11.2693 14.1023 11.2578L14.0508 11.2019C14.0225 11.1757 14.0005 11.1434 13.9863 11.1074C13.9812 11.0903 13.9797 11.0723 13.9819 11.0545C13.9841 11.0367 13.99 11.0196 13.9992 11.0043C14.0123 10.9857 14.0301 10.9708 14.0508 10.9613C14.0738 10.9514 14.0992 10.9484 14.1238 10.9527C14.1496 10.9527 14.1783 10.9642 14.2098 10.9871C14.2556 11.0157 14.2842 11.0487 14.2957 11.0859C14.3021 11.1043 14.3043 11.1239 14.3021 11.1433C14.2999 11.1626 14.2933 11.1812 14.2828 11.1977L14.2012 11.1504C14.2126 11.1275 14.2155 11.1088 14.2098 11.0945C14.204 11.0802 14.1897 11.0659 14.1668 11.0516C14.1581 11.0438 14.1479 11.0379 14.1368 11.0342C14.1257 11.0305 14.114 11.0291 14.1023 11.0301L14.0766 11.0473V11.0773C14.0766 11.0917 14.0937 11.116 14.1281 11.1504C14.1625 11.1848 14.1854 11.2105 14.1969 11.2277C14.2101 11.2492 14.2168 11.2741 14.216 11.2993C14.2152 11.3245 14.2071 11.3489 14.1926 11.3695C14.1788 11.3927 14.1581 11.4109 14.1335 11.4217C14.1088 11.4325 14.0814 11.4353 14.0551 11.4297C14.0213 11.4232 13.9892 11.4101 13.9605 11.391C13.92 11.3674 13.8883 11.3312 13.8703 11.2879C13.8576 11.2449 13.8623 11.1986 13.8832 11.159ZM13.4191 11.0301L13.6598 10.6434L13.9477 10.8152L13.9047 10.884L13.6984 10.7551L13.6426 10.841L13.8402 10.9613L13.7973 11.0301L13.6039 10.9098L13.5395 11.0172L13.7543 11.1461L13.7156 11.2148L13.4191 11.0301ZM12.7402 10.4758L12.7789 10.407L12.9508 10.5016L12.8691 10.6605C12.7995 10.6767 12.7264 10.6676 12.6629 10.6348C12.6247 10.6145 12.5922 10.5849 12.5684 10.5488C12.5468 10.5155 12.5349 10.4768 12.534 10.4371C12.534 10.3941 12.5454 10.354 12.5684 10.3168C12.588 10.277 12.6176 10.243 12.6543 10.218C12.6858 10.1922 12.7245 10.1793 12.7703 10.1793C12.8018 10.1793 12.8376 10.1893 12.8777 10.2094C12.9201 10.2293 12.9548 10.2625 12.9766 10.3039C12.9938 10.3383 12.998 10.3769 12.9895 10.4199L12.8992 10.3941C12.9049 10.3724 12.9018 10.3492 12.8906 10.3297C12.8781 10.3095 12.8603 10.2931 12.8391 10.2824C12.8237 10.2732 12.8066 10.2673 12.7889 10.2651C12.7711 10.2629 12.7531 10.2644 12.7359 10.2695C12.7073 10.2838 12.6786 10.3125 12.65 10.3555C12.6296 10.3952 12.6221 10.4402 12.6285 10.4844C12.6371 10.5187 12.66 10.5445 12.6973 10.5617L12.7531 10.5789H12.809L12.8348 10.5273L12.7402 10.4758ZM9.78398 9.74531L9.85273 9.28984L9.99023 9.31132L10.0246 9.63359L10.1535 9.33281L10.2867 9.35429L10.2223 9.80976L10.1363 9.79687L10.1879 9.44023L10.0461 9.78398L9.96016 9.77109L9.92148 9.39726L9.86992 9.7582L9.78398 9.74531ZM9.32422 9.68945L9.36719 9.23398L9.70234 9.26406L9.69805 9.3414L9.44883 9.31992L9.44023 9.41874L9.66797 9.44023L9.66367 9.51757L9.43594 9.49609L9.42305 9.62499L9.67656 9.64648L9.66797 9.72382L9.32422 9.68945Z" fill="#309E3A"/>
<path d="M7.79451 9.40155C7.79451 9.35572 7.80167 9.31704 7.81599 9.28553L7.85896 9.22538L7.92342 9.18241C7.95521 9.17172 7.98878 9.16734 8.02224 9.16952C8.05207 9.16932 8.0816 9.17532 8.10897 9.18716C8.13634 9.199 8.16095 9.2164 8.18123 9.23827C8.22133 9.28124 8.23995 9.33853 8.23709 9.41014C8.23709 9.48749 8.2156 9.54478 8.17264 9.58202C8.15112 9.60288 8.12548 9.61901 8.09736 9.62937C8.06924 9.63973 8.03926 9.64409 8.00935 9.64217C7.97985 9.64293 7.9505 9.63759 7.92315 9.6265C7.8958 9.61541 7.87102 9.59881 7.85037 9.57772C7.82913 9.55485 7.81314 9.52762 7.80349 9.49794C7.79384 9.46826 7.79078 9.43683 7.79451 9.40585V9.40155Z" fill="#309E3A"/>
<path d="M7.88906 9.40154C7.88906 9.45311 7.90052 9.49321 7.92344 9.52186C7.94635 9.5505 7.975 9.56483 8.00937 9.56483C8.02693 9.56516 8.04438 9.5619 8.06063 9.55525C8.07689 9.5486 8.09162 9.5387 8.10391 9.52615C8.12682 9.50037 8.13971 9.4617 8.14258 9.41014C8.14258 9.35285 8.13112 9.31274 8.1082 9.28983C8.08616 9.26496 8.05538 9.24957 8.02227 9.24686C7.9793 9.24686 7.94779 9.25975 7.92773 9.28553C7.90195 9.31131 7.88763 9.34998 7.88477 9.40154H7.88906Z" fill="#F7FFFF"/>
<path d="M8.33594 9.6422L8.34023 9.18243H8.53359C8.58516 9.18243 8.62096 9.18816 8.64102 9.19962C8.66966 9.21108 8.68685 9.2254 8.69258 9.24259C8.70404 9.26551 8.7112 9.28986 8.71406 9.31564C8.71406 9.35001 8.70404 9.37866 8.68398 9.40157C8.66393 9.42163 8.63242 9.43595 8.58945 9.44454C8.61237 9.45314 8.62956 9.4646 8.64102 9.47892L8.69258 9.55626L8.74844 9.6422H8.63672L8.57227 9.54337L8.5207 9.47462L8.49492 9.45743L8.45195 9.44884H8.43047V9.6422H8.33594Z" fill="#309E3A"/>
<path d="M8.43066 9.37579H8.58535L8.60684 9.3543C8.61543 9.34571 8.61973 9.33425 8.61973 9.31993C8.61973 9.3056 8.61543 9.29271 8.60684 9.28126L8.57246 9.26407H8.43496L8.43066 9.37579Z" fill="white"/>
<path d="M8.86025 9.20392L9.02783 9.21251L9.11377 9.2254C9.13824 9.23463 9.16029 9.24933 9.17822 9.26837C9.19829 9.29215 9.21295 9.32001 9.22119 9.35001C9.22979 9.37866 9.23265 9.41447 9.22979 9.45743C9.23199 9.49044 9.22655 9.52351 9.21388 9.55407C9.20121 9.58463 9.18166 9.61185 9.15674 9.63361C9.13955 9.64793 9.11807 9.65939 9.09229 9.66798H9.00635L8.83447 9.66368L8.86025 9.20392Z" fill="#309E3A"/>
<path d="M8.946 9.28555L8.93311 9.58633L9.00186 9.59493H9.05772L9.09639 9.57344C9.10785 9.56485 9.11644 9.55053 9.12217 9.53047L9.13506 9.44454L9.13076 9.36719C9.12503 9.34714 9.11644 9.33282 9.10498 9.32422L9.06201 9.29844L8.98896 9.28985L8.946 9.28555Z" fill="white"/>
<path d="M11.1074 10.0246L11.2148 9.57773L11.3566 9.6121C11.4139 9.62643 11.4497 9.63788 11.4641 9.64648C11.487 9.65794 11.5042 9.67656 11.5156 9.70234C11.5271 9.72812 11.5285 9.75963 11.5199 9.79687C11.5161 9.81903 11.5066 9.83981 11.4923 9.85715C11.4779 9.87449 11.4593 9.88778 11.4383 9.8957L11.391 9.90859L11.2965 9.8914L11.2363 9.87851L11.1934 10.0461L11.1074 10.0246Z" fill="#309E3A"/>
<path d="M11.2835 9.67654L11.2534 9.80545L11.305 9.81404C11.3394 9.82264 11.3637 9.8255 11.378 9.82264C11.3899 9.82141 11.4012 9.81667 11.4104 9.80901C11.4195 9.80136 11.4262 9.79114 11.4296 9.77967L11.4253 9.7324L11.3909 9.70233L11.3265 9.68514L11.2835 9.67654Z" fill="white"/>
<path d="M11.5327 10.1535L11.6831 9.71954L11.8679 9.784L11.9624 9.82697C11.9796 9.84415 11.9925 9.86564 12.0011 9.89142C12.014 9.93009 12.0011 9.93868 11.9925 9.96447C11.9839 9.99884 11.9653 10.0218 11.9366 10.0332C11.9218 10.0418 11.9055 10.0474 11.8885 10.0496C11.8715 10.0518 11.8543 10.0506 11.8378 10.0461L11.8722 10.0977L11.8979 10.1836L11.9194 10.2867L11.8163 10.2524L11.7862 10.1363L11.7605 10.0547L11.7433 10.0289L11.7003 10.0074L11.6831 10.0031L11.6187 10.1836L11.5327 10.1535Z" fill="#309E3A"/>
<path d="M11.7046 9.93438L11.769 9.95587L11.8507 9.97735C11.8621 9.97735 11.8722 9.97449 11.8808 9.96876L11.9022 9.93868V9.89571L11.8765 9.86993L11.812 9.84844L11.7433 9.82266L11.7046 9.93438Z" fill="white"/>
<path d="M12.0699 10.1363C12.081 10.0971 12.1001 10.0605 12.1258 10.0289C12.1401 10.0088 12.1587 9.99309 12.1816 9.98163L12.2504 9.96014C12.279 9.96014 12.312 9.96444 12.3492 9.97303C12.3784 9.98033 12.4057 9.99365 12.4293 10.0122C12.453 10.0307 12.4726 10.0539 12.4867 10.0805C12.5153 10.1349 12.5168 10.1965 12.491 10.2652C12.475 10.3269 12.4367 10.3805 12.3836 10.4156C12.3571 10.4288 12.3281 10.4364 12.2985 10.4379C12.269 10.4393 12.2394 10.4347 12.2117 10.4242C12.1825 10.4169 12.1552 10.4036 12.1316 10.3851C12.1079 10.3666 12.0883 10.3433 12.0742 10.3168C12.0511 10.2591 12.0495 10.195 12.0699 10.1363Z" fill="#309E3A"/>
<path d="M12.1602 10.1621C12.1458 10.2079 12.1458 10.248 12.1602 10.2824C12.1745 10.3168 12.2003 10.3397 12.2375 10.3512C12.2719 10.3598 12.3034 10.3555 12.332 10.3383C12.3607 10.3211 12.385 10.2867 12.4051 10.2351C12.4165 10.1864 12.4165 10.1449 12.4051 10.1105C12.3972 10.0951 12.3862 10.0815 12.373 10.0704C12.3597 10.0594 12.3443 10.0511 12.3277 10.0461C12.3112 10.0416 12.294 10.0404 12.277 10.0426C12.2601 10.0448 12.2437 10.0504 12.2289 10.059C12.2003 10.0762 12.1773 10.1105 12.1602 10.1621Z" fill="white"/>
<path d="M12.9639 10.7766L13.1744 10.3683L13.3463 10.4543C13.3893 10.4801 13.4179 10.5001 13.4322 10.5144C13.4494 10.5345 13.4594 10.556 13.4623 10.5789C13.468 10.6075 13.4623 10.6319 13.4451 10.6519C13.4337 10.6806 13.4122 10.7021 13.3807 10.7164C13.352 10.725 13.3191 10.7236 13.2818 10.7121C13.2933 10.7293 13.3019 10.7479 13.3076 10.768L13.3205 10.8582L13.3291 10.9656L13.2303 10.9141L13.2174 10.7937L13.2045 10.7078L13.1873 10.682L13.1486 10.6562L13.1314 10.6476L13.0455 10.8195L12.9639 10.7766Z" fill="#309E3A"/>
<path d="M13.166 10.5832L13.2262 10.6133L13.3035 10.6477C13.315 10.6477 13.325 10.6448 13.3336 10.6391C13.3437 10.6315 13.352 10.6218 13.358 10.6107C13.3639 10.5995 13.3673 10.5872 13.368 10.5746L13.3422 10.5445L13.2863 10.5102L13.2219 10.4801L13.166 10.5832Z" fill="white"/>
<path d="M14.6609 11.6145C14.6839 11.5744 14.7125 11.5457 14.7469 11.5285L14.8156 11.4984H14.8844C14.9159 11.5013 14.9474 11.5156 14.9789 11.5414C15.0043 11.5569 15.0262 11.5775 15.0432 11.6019C15.0602 11.6263 15.072 11.654 15.0777 11.6832C15.084 11.7457 15.0672 11.8084 15.0305 11.8594C14.9961 11.9142 14.9424 11.954 14.8801 11.9711C14.851 11.9765 14.8211 11.9759 14.7923 11.9693C14.7634 11.9626 14.7363 11.9501 14.7125 11.9324C14.6871 11.9169 14.6652 11.8963 14.6482 11.8719C14.6312 11.8475 14.6194 11.8198 14.6137 11.7906C14.6062 11.7286 14.6215 11.666 14.6566 11.6145H14.6609Z" fill="#309E3A"/>
<path d="M14.7384 11.6617C14.7098 11.7076 14.6983 11.7477 14.7041 11.7821C14.707 11.7994 14.7135 11.816 14.7231 11.8308C14.7327 11.8456 14.7452 11.8582 14.7599 11.868C14.788 11.8857 14.8219 11.8918 14.8545 11.8852C14.8888 11.8766 14.9218 11.8494 14.9533 11.8035C14.9848 11.7577 14.9963 11.719 14.9877 11.6875C14.9877 11.656 14.9705 11.6274 14.9361 11.6016C14.8845 11.5629 14.8716 11.5758 14.8373 11.5844C14.8029 11.593 14.7714 11.6188 14.7427 11.6617H14.7384Z" fill="white"/>
<path d="M10.5874 9.83984L10.6604 9.51328L10.9011 9.56913L10.8882 9.62499L10.7163 9.58203L10.6991 9.65507L10.8581 9.69374L10.8452 9.7496L10.6862 9.70663L10.6647 9.79687L10.8452 9.83984L10.8323 9.8957L10.5874 9.83984Z" fill="#309E3A"/>
</g>
<defs>
<clipPath id="clip0_43_1218">
<rect width="22" height="22" fill="white"/>
</clipPath>
</defs>
</svg>
