<svg width="174" height="38" viewBox="0 0 174 38" fill="none" xmlns="http://www.w3.org/2000/svg">
<g clip-path="url(#clip0_24_538)">
<path d="M100.023 6.60353V8.78253C100.023 10.7572 98.4228 12.3574 96.4481 12.3574H45.8136C43.0558 12.3779 40.6521 13.91 39.3855 16.1571C38.7795 17.233 38.439 18.4723 38.439 19.7933C38.439 23.8789 41.7348 27.1951 45.8136 27.2291V27.2564H68.0734C70.0482 27.2564 71.6484 28.8566 71.6484 30.8313V33.0103C71.6484 34.985 70.0482 36.5852 68.0734 36.5852H45.834C44.084 36.5852 42.3544 36.3128 40.7134 35.7953C40.6317 35.7681 40.5499 35.7408 40.4682 35.7136C40.3457 35.6728 40.2231 35.6319 40.1073 35.5842C33.6657 33.2418 29.0693 27.0589 29.0693 19.8069C29.0693 17.1512 29.6822 14.6386 30.7853 12.4051C33.5159 6.84185 39.2357 3.01498 45.8544 3.01498C45.9089 3.01498 45.9702 3.01498 46.0247 3.01498H50.4508C50.5393 3.01498 50.6278 3.01498 50.7163 3.01498H96.4549C98.4296 3.01498 100.03 4.61519 100.03 6.58991L100.023 6.60353Z" fill="white"/>
<path d="M39.4944 35.3595C37.1179 34.4198 34.9593 32.949 33.2093 31.0287L32.9301 30.6951L25.2083 20.5015C23.7511 18.5744 20.8367 18.6221 19.4408 20.5968L9.2948 34.9305C8.62748 35.877 7.53117 36.4422 6.37357 36.4422H3.57492C0.653696 36.4422 -1.02822 33.126 0.687743 30.7632L19.4135 5.03055C20.8231 3.08988 23.7034 3.06264 25.1538 4.97608L30.7852 12.4187C29.6821 14.6522 29.0692 17.1649 29.0692 19.8205C29.0692 26.841 33.3796 32.8537 39.4944 35.3595Z" fill="white"/>
<path d="M80.5005 14.5432H78.3215C76.3471 14.5432 74.7466 16.1438 74.7466 18.1182V32.8605C74.7466 34.8348 76.3471 36.4354 78.3215 36.4354H80.5005C82.4749 36.4354 84.0754 34.8348 84.0754 32.8605V18.1182C84.0754 16.1438 82.4749 14.5432 80.5005 14.5432Z" fill="white"/>
<path d="M170.418 0.549988H168.239C166.265 0.549988 164.665 2.15054 164.665 4.12491V33.8751C164.665 35.8494 166.265 37.45 168.239 37.45H170.418C172.393 37.45 173.993 35.8494 173.993 33.8751V4.12491C173.993 2.15054 172.393 0.549988 170.418 0.549988Z" fill="white"/>
<path d="M101.01 37.45C103.895 37.45 106.233 35.1117 106.233 32.2272C106.233 29.3428 103.895 27.0044 101.01 27.0044C98.1259 27.0044 95.7876 29.3428 95.7876 32.2272C95.7876 35.1117 98.1259 37.45 101.01 37.45Z" fill="white"/>
<path d="M123.529 36.4354H121.085C118.299 36.4354 116.584 33.3848 118.027 31.0015L133.757 5.13271C135.085 2.95371 138.203 2.82433 139.701 4.88757L158.448 30.6542C160.184 33.0375 158.448 36.3741 155.506 36.3333L153.865 36.3128C152.769 36.2992 151.74 35.7817 151.08 34.9101L139.967 20.3857C138.387 18.3225 135.2 18.5812 133.975 20.876L126.675 34.5492C126.055 35.7136 124.843 36.4422 123.522 36.4422L123.529 36.4354Z" fill="white"/>
<path d="M46.5082 36.592C46.2903 36.6056 46.0724 36.6056 45.8613 36.6056C44.0704 36.6056 42.3408 36.3264 40.7202 35.8021C42.3613 36.3196 44.0909 36.592 45.8409 36.592H46.5082Z" fill="white"/>
<path d="M80.5005 14.5432H78.3215C76.3471 14.5432 74.7466 16.1438 74.7466 18.1182V32.8605C74.7466 34.8348 76.3471 36.4354 78.3215 36.4354H80.5005C82.4749 36.4354 84.0754 34.8348 84.0754 32.8605V18.1182C84.0754 16.1438 82.4749 14.5432 80.5005 14.5432Z" fill="url(#paint0_linear_24_538)"/>
<path d="M100.023 6.60352V8.78252C100.023 10.7572 98.4228 12.3574 96.4481 12.3574H45.8135C43.0557 12.3779 40.652 13.91 39.3855 16.1571C38.7794 17.233 38.439 18.4723 38.439 19.7933C38.439 21.2982 38.8884 22.7009 39.6579 23.8721H39.6442L30.8057 12.3779C33.543 6.83504 39.2561 3.02859 45.8544 3.02859C45.9089 3.02859 45.9701 3.02859 46.0246 3.02859H50.4507C50.5392 3.02859 50.6278 3.02859 50.7163 3.02859H96.4549C98.4296 3.02859 100.03 4.6288 100.03 6.60352H100.023Z" fill="url(#paint1_linear_24_538)"/>
</g>
<defs>
<linearGradient id="paint0_linear_24_538" x1="79.411" y1="12.3642" x2="79.411" y2="36.5443" gradientUnits="userSpaceOnUse">
<stop stop-color="#0A0F0A"/>
<stop offset="0.1" stop-color="#4E524E" stop-opacity="0.72"/>
<stop offset="0.43" stop-color="#D6D7D6" stop-opacity="0.17"/>
<stop offset="1" stop-color="white" stop-opacity="0"/>
</linearGradient>
<linearGradient id="paint1_linear_24_538" x1="23.6831" y1="29.4694" x2="108.446" y2="-10.6651" gradientUnits="userSpaceOnUse">
<stop stop-color="#0A0F0A"/>
<stop offset="0.1" stop-color="#4E524E" stop-opacity="0.72"/>
<stop offset="0.43" stop-color="#D6D7D6" stop-opacity="0.17"/>
<stop offset="1" stop-color="white" stop-opacity="0"/>
</linearGradient>
<clipPath id="clip0_24_538">
<rect width="174" height="36.9" fill="white" transform="translate(0 0.549988)"/>
</clipPath>
</defs>
</svg>
